<svg height="1353" xmlns="http://www.w3.org/2000/svg" viewBox="0 0 1348 1353" xmlns:xlink="http://www.w3.org/1999/xlink" width="1348"><defs/><g transform="translate(-428.84,-517.00)"><g transform="translate(749.500000,579.646000)" id="group1"><path transform="translate(16.000000,0.000000)" fill="#ffffff" fill-rule="nonzero" id="shape2" d="M.0,.0L141.5,.0L141.5,80.0L.0,80.0L.0,.0z" stroke="#101843" stroke-width="1"/><path transform="translate(0.000000,12.000000)" fill="#ffffff" fill-rule="nonzero" id="shape3" d="M.0,.0L32.0,.0L32.0,16.0L.0,16.0L.0,.0z" stroke="#101843" stroke-width="1"/><path transform="translate(0.000000,52.000000)" fill="#ffffff" fill-rule="nonzero" id="shape4" d="M.0,.0L32.0,.0L32.0,16.0L.0,16.0L.0,.0z" stroke="#101843" stroke-width="1"/><text style="fill:#191919;font-family:Microsoft YaHei;font-size:12.00pt" xml:space="preserve"><tspan x="46.9" y="35.0">ISO2DCAT</tspan><tspan x="40.2" y="57.0">Schnittstelle</tspan></text></g><g transform="translate(1535.000000,565.728000)" id="group5"><g transform="translate(-4.870000,-5.533000)" id="shape6"><path fill="#ffffff" fill-rule="nonzero" d="M.0,.0L231.9,.0L231.9,263.5L.0,263.5L.0,.0zM.0,131.7L.0,131.7" stroke="#101843" stroke-width="1"/><text style="fill:#191919;font-family:Microsoft YaHei;font-size:12.00pt" xml:space="preserve"><tspan x="92.5" y="21.0">RDF4J</tspan></text></g><g transform="translate(189.527160,14.415890)" id="group7"><path transform="matrix(-1.000000,0.000000,0.000000,-1.000000,19.217700,14.951220)" fill="#ffffff" fill-rule="nonzero" id="shape8" d="M.0,.0L16.0,.0L16.0,15.0L.0,15.0L.0,.0z" stroke="#101843" stroke-width="1"/><path transform="matrix(-1.000000,0.000000,0.000000,-1.000000,6.910780,12.941100)" fill="#ffffff" fill-rule="nonzero" id="shape9" d="M.0,.0L6.9,.0L6.9,3.5L.0,3.5L.0,.0z" stroke="#101843" stroke-width="1"/><path transform="matrix(-1.000000,0.000000,0.000000,-1.000000,6.910780,5.465500)" fill="#ffffff" fill-rule="nonzero" id="shape10" d="M.0,.0L6.9,.0L6.9,3.5L.0,3.5L.0,.0z" stroke="#101843" stroke-width="1"/></g></g><g transform="translate(1636.497500,622.705000)" id="group11"><path transform="translate(16.000000,0.000000)" fill="#ffffff" fill-rule="nonzero" id="shape12" d="M.0,.0L76.6,.0L76.6,57.0L.0,57.0L.0,.0z" stroke="#101843" stroke-width="1"/><path transform="translate(0.000000,6.250000)" fill="#ffffff" fill-rule="nonzero" id="shape13" d="M.0,.0L32.0,.0L32.0,16.0L.0,16.0L.0,.0z" stroke="#101843" stroke-width="1"/><path transform="translate(0.000000,34.750000)" fill="#ffffff" fill-rule="nonzero" id="shape14" d="M.0,.0L32.0,.0L32.0,16.0L.0,16.0L.0,.0z" stroke="#101843" stroke-width="1"/><text style="fill:#191919;font-family:Microsoft YaHei;font-size:12.00pt" xml:space="preserve"><tspan x="38.5" y="34.5">DB1</tspan></text></g><g transform="translate(1636.497500,713.705000)" id="group15"><path transform="translate(16.000000,0.000000)" fill="#ffffff" fill-rule="nonzero" id="shape16" d="M.0,.0L76.6,.0L76.6,57.0L.0,57.0L.0,.0z" stroke="#101843" stroke-width="1"/><path transform="translate(0.000000,6.250000)" fill="#ffffff" fill-rule="nonzero" id="shape17" d="M.0,.0L32.0,.0L32.0,16.0L.0,16.0L.0,.0z" stroke="#101843" stroke-width="1"/><path transform="translate(0.000000,34.750000)" fill="#ffffff" fill-rule="nonzero" id="shape18" d="M.0,.0L32.0,.0L32.0,16.0L.0,16.0L.0,.0z" stroke="#101843" stroke-width="1"/><text style="fill:#191919;font-family:Microsoft YaHei;font-size:12.00pt" xml:space="preserve"><tspan x="38.5" y="34.5">DB2</tspan></text></g><g transform="translate(1432.220000,709.705000)" id="shape19"><text style="fill:#191919;font-family:Noto Sans;font-size:10.00pt" xml:space="preserve"><tspan x="43.7" y="26.5">Write</tspan><tspan x="29.0" y="47.5" style="font-family:Microsoft YaHei;font-size:12.00pt">SPARQL</tspan><tspan x="25.3" y="69.5" style="font-family:Microsoft YaHei;font-size:12.00pt">Endpoint</tspan></text></g><path transform="translate(665.000000,603.646000)" fill="none" id="shape20" stroke="#101843" d="M.0,.0C8.8,.0,16.0,7.2,16.0,16.0C16.0,24.8,8.8,32.0,.0,32.0M16.0,16.0L100.5,16.0" stroke-width="1"/><g transform="translate(897.000000,610.172000)" id="group21"><path fill="none" id="shape22" stroke="#101843" d="M10.0,10.0L57.0,10.0" stroke-width="1"/><path fill="#ffffff" fill-rule="nonzero" id="shape23" d="M.0,.0L20.0,.0L20.0,20.0L.0,20.0L.0,.0z" stroke="#101843" stroke-width="1"/><path transform="translate(47.000000,0.000000)" fill="#ffffff" fill-rule="nonzero" id="shape24" d="M.0,10.0C.0,4.5,4.5,.0,10.0,.0C15.5,.0,20.0,4.5,20.0,10.0C20.0,15.5,15.5,20.0,10.0,20.0C4.5,20.0,.0,15.5,.0,10.0z" stroke="#101843" stroke-width="1"/></g><g transform="translate(870.500000,631.705000)" id="shape25"><text style="fill:#191919;font-family:Microsoft YaHei;font-size:12.00pt" xml:space="preserve"><tspan x="36.0" y="25.0">DCAT </tspan><tspan x="37.0" y="47.0">Daten</tspan></text></g><g transform="translate(985.070000,567.646000)" id="group26"><path transform="translate(16.000000,0.000000)" fill="#ffffff" fill-rule="nonzero" id="shape27" d="M.0,.0L152.9,.0L152.9,104.0L.0,104.0L.0,.0z" stroke="#101843" stroke-width="1"/><path transform="translate(0.000000,18.000000)" fill="#ffffff" fill-rule="nonzero" id="shape28" d="M.0,.0L32.0,.0L32.0,16.0L.0,16.0L.0,.0z" stroke="#101843" stroke-width="1"/><path transform="translate(0.000000,70.000000)" fill="#ffffff" fill-rule="nonzero" id="shape29" d="M.0,.0L32.0,.0L32.0,16.0L.0,16.0L.0,.0z" stroke="#101843" stroke-width="1"/><text style="fill:#191919;font-family:Microsoft YaHei;font-size:12.00pt" xml:space="preserve"><tspan x="79.0" y="36.0">ISO</tspan><tspan x="55.8" y="58.0">Harvester</tspan><tspan x="39.1" y="80.0">Zeitsteuerung</tspan></text></g><g transform="translate(1522.220000,697.705000)" id="group30"><path fill="none" id="shape31" stroke="#101843" d="M10.0,10.0L-24.0,10.0" stroke-width="1"/><path fill="#ffffff" fill-rule="nonzero" id="shape32" d="M.0,.0L20.0,.0L20.0,20.0L.0,20.0L.0,.0z" stroke="#101843" stroke-width="1"/><path transform="translate(-56.000000,-6.000000)" fill="none" id="shape33" stroke="#101843" d="M16.0,.0C24.8,.0,32.0,7.2,32.0,16.0C32.0,24.8,24.8,32.0,16.0,32.0" stroke-width="1"/></g><g transform="translate(995.000000,610.172000)" id="group34"><path fill="none" id="shape35" stroke="#101843" d="M10.0,10.0L-25.0,10.0" stroke-width="1"/><path fill="#ffffff" fill-rule="nonzero" id="shape36" d="M.0,.0L20.0,.0L20.0,20.0L.0,20.0L.0,.0z" stroke="#101843" stroke-width="1"/><path transform="translate(-57.000000,-6.000000)" fill="none" id="shape37" stroke="#101843" d="M16.0,.0C24.8,.0,32.0,7.2,32.0,16.0C32.0,24.8,24.8,32.0,16.0,32.0" stroke-width="1"/></g><g transform="translate(434.000000,574.646500)" id="group38"><path transform="translate(16.000000,0.000000)" fill="#ffffff" fill-rule="nonzero" id="shape39" d="M.0,.0L114.0,.0L114.0,193.1L.0,193.1L.0,.0z" stroke="#101843" stroke-width="1"/><path transform="translate(0.000000,40.264700)" fill="#ffffff" fill-rule="nonzero" id="shape40" d="M.0,.0L32.0,.0L32.0,16.0L.0,16.0L.0,.0z" stroke="#101843" stroke-width="1"/><path transform="translate(0.000000,136.794000)" fill="#ffffff" fill-rule="nonzero" id="shape41" d="M.0,.0L32.0,.0L32.0,16.0L.0,16.0L.0,.0z" stroke="#101843" stroke-width="1"/><text style="fill:#191919;font-family:Microsoft YaHei;font-size:12.00pt" xml:space="preserve"><tspan x="59.5" y="81.0">ISO</tspan><tspan x="27.7" y="103.0">Datenbereit</tspan><tspan x="49.9" y="125.0">steller</tspan></text></g><g transform="matrix(1.000000,0.000001,-0.000001,1.000000,564.000011,609.645945)" id="shape42"><path fill="#ffffff" fill-rule="nonzero" d="M91.0,10.0C91.0,4.5,95.5,.0,101.0,.0C106.5,.0,111.0,4.5,111.0,10.0L111.0,10.0C111.0,15.5,106.5,20.0,101.0,20.0C95.5,20.0,91.0,15.5,91.0,10.0z"/><path fill="none" stroke="#101843" d="M91.0,10.0C91.0,4.5,95.5,.0,101.0,.0C106.5,.0,111.0,4.5,111.0,10.0L111.0,10.0C111.0,15.5,106.5,20.0,101.0,20.0C95.5,20.0,91.0,15.5,91.0,10.0zM.0,10.0L91.0,10.0" stroke-width="1"/></g><g transform="translate(551.117000,593.172000)" id="shape43"><text style="fill:#191919;font-family:Microsoft YaHei;font-size:12.00pt" xml:space="preserve"><tspan x="26.0" y="22.0">CSW ISO</tspan><tspan x="16.0" y="44.0">Webservice</tspan></text></g><g transform="translate(564.000000,686.466000)" id="shape44"><path fill="#ffffff" fill-rule="nonzero" d="M91.0,10.0C91.0,4.5,95.5,.0,101.0,.0C106.5,.0,111.0,4.5,111.0,10.0L111.0,10.0C111.0,15.5,106.5,20.0,101.0,20.0C95.5,20.0,91.0,15.5,91.0,10.0z"/><path fill="none" stroke="#101843" d="M91.0,10.0C91.0,4.5,95.5,.0,101.0,.0C106.5,.0,111.0,4.5,111.0,10.0L111.0,10.0C111.0,15.5,106.5,20.0,101.0,20.0C95.5,20.0,91.0,15.5,91.0,10.0zM.0,10.0L91.0,10.0" stroke-width="1"/></g><g transform="translate(548.117000,640.954000)" id="shape45"><text style="fill:#191919;font-family:Microsoft YaHei;font-size:12.00pt" xml:space="preserve"><tspan x="40.7" y="25.0">DCM</tspan><tspan x="16.0" y="47.0">Webservice</tspan><tspan x="26.3" y="69.0">(Nur von </tspan><tspan x="39.8" y="91.0">LGB!)</tspan></text></g><path transform="matrix(0.978389,-0.206773,0.206773,0.978389,661.691634,680.811776)" fill="none" id="shape46" stroke="#101843" d="M.0,.0C8.8,.0,16.0,7.2,16.0,16.0C16.0,24.8,8.8,32.0,.0,32.0M16.0,16.0L178.1,16.0" stroke-width="1"/><g transform="translate(658.770000,592.346000)" id="shape47"><text style="fill:#191919;font-family:Microsoft YaHei;font-size:12.00pt" xml:space="preserve"><tspan x="44.1" y="22.0">ISO </tspan><tspan x="27.2" y="44.0">Datasets</tspan></text></g><g transform="translate(707.639000,659.476000)" id="shape48"><text style="fill:#191919;font-family:Microsoft YaHei;font-size:12.00pt" xml:space="preserve"><tspan x="15.0" y="25.0">ISO Dataset</tspan><tspan x="27.1" y="47.0">zu DCAT </tspan><tspan x="30.5" y="69.0">Catalog</tspan><tspan x="19.8" y="91.0">Abbildung</tspan><tspan x="33.9" y="113.0">[JSON]</tspan></text></g><g transform="translate(750.500000,814.646000)" id="group49"><path transform="translate(16.000000,0.000000)" fill="#ffffff" fill-rule="nonzero" id="shape50" d="M.0,.0L140.5,.0L140.5,80.0L.0,80.0L.0,.0z" stroke="#101843" stroke-width="1"/><path transform="translate(0.000000,12.000000)" fill="#ffffff" fill-rule="nonzero" id="shape51" d="M.0,.0L32.0,.0L32.0,16.0L.0,16.0L.0,.0z" stroke="#101843" stroke-width="1"/><path transform="translate(0.000000,52.000000)" fill="#ffffff" fill-rule="nonzero" id="shape52" d="M.0,.0L32.0,.0L32.0,16.0L.0,16.0L.0,.0z" stroke="#101843" stroke-width="1"/><text style="fill:#191919;font-family:Microsoft YaHei;font-size:12.00pt" xml:space="preserve"><tspan x="44.3" y="35.0">RDF2DCAT</tspan><tspan x="39.7" y="57.0">Schnittstelle</tspan></text></g><path transform="translate(666.000000,838.646000)" fill="none" id="shape53" stroke="#101843" d="M.0,.0C8.8,.0,16.0,7.2,16.0,16.0C16.0,24.8,8.8,32.0,.0,32.0M16.0,16.0L100.5,16.0" stroke-width="1"/><g transform="translate(897.000000,845.172000)" id="group54"><path fill="none" id="shape55" stroke="#101843" d="M10.0,10.0L57.0,10.0" stroke-width="1"/><path fill="#ffffff" fill-rule="nonzero" id="shape56" d="M.0,.0L20.0,.0L20.0,20.0L.0,20.0L.0,.0z" stroke="#101843" stroke-width="1"/><path transform="translate(47.000000,0.000000)" fill="#ffffff" fill-rule="nonzero" id="shape57" d="M.0,10.0C.0,4.5,4.5,.0,10.0,.0C15.5,.0,20.0,4.5,20.0,10.0C20.0,15.5,15.5,20.0,10.0,20.0C4.5,20.0,.0,15.5,.0,10.0z" stroke="#101843" stroke-width="1"/></g><g transform="translate(869.500000,869.705000)" id="shape58"><text style="fill:#191919;font-family:Microsoft YaHei;font-size:12.00pt" xml:space="preserve"><tspan x="38.3" y="25.0">DCAT</tspan><tspan x="37.0" y="47.0">Daten</tspan></text></g><g transform="translate(989.035000,802.346000)" id="group59"><path transform="translate(16.000000,0.000000)" fill="#ffffff" fill-rule="nonzero" id="shape60" d="M.0,.0L149.0,.0L149.0,104.0L.0,104.0L.0,.0z" stroke="#101843" stroke-width="1"/><path transform="translate(0.000000,18.000000)" fill="#ffffff" fill-rule="nonzero" id="shape61" d="M.0,.0L32.0,.0L32.0,16.0L.0,16.0L.0,.0z" stroke="#101843" stroke-width="1"/><path transform="translate(0.000000,70.000000)" fill="#ffffff" fill-rule="nonzero" id="shape62" d="M.0,.0L32.0,.0L32.0,16.0L.0,16.0L.0,.0z" stroke="#101843" stroke-width="1"/><text style="fill:#191919;font-family:Microsoft YaHei;font-size:12.00pt" xml:space="preserve"><tspan x="68.8" y="36.0">DCAT</tspan><tspan x="53.8" y="58.0">Harvester</tspan><tspan x="37.2" y="80.0">Zeitsteuerung</tspan></text></g><g transform="translate(995.000000,845.172000)" id="group63"><path fill="none" id="shape64" stroke="#101843" d="M10.0,10.0L-25.0,10.0" stroke-width="1"/><path fill="#ffffff" fill-rule="nonzero" id="shape65" d="M.0,.0L20.0,.0L20.0,20.0L.0,20.0L.0,.0z" stroke="#101843" stroke-width="1"/><path transform="translate(-57.000000,-6.000000)" fill="none" id="shape66" stroke="#101843" d="M16.0,.0C24.8,.0,32.0,7.2,32.0,16.0C32.0,24.8,24.8,32.0,16.0,32.0" stroke-width="1"/></g><g transform="translate(435.000000,814.646000)" id="group67"><path transform="translate(16.000000,0.000000)" fill="#ffffff" fill-rule="nonzero" id="shape68" d="M.0,.0L114.0,.0L114.0,80.0L.0,80.0L.0,.0z" stroke="#101843" stroke-width="1"/><path transform="translate(0.000000,12.000000)" fill="#ffffff" fill-rule="nonzero" id="shape69" d="M.0,.0L32.0,.0L32.0,16.0L.0,16.0L.0,.0z" stroke="#101843" stroke-width="1"/><path transform="translate(0.000000,52.000000)" fill="#ffffff" fill-rule="nonzero" id="shape70" d="M.0,.0L32.0,.0L32.0,16.0L.0,16.0L.0,.0z" stroke="#101843" stroke-width="1"/><text style="fill:#191919;font-family:Microsoft YaHei;font-size:12.00pt" xml:space="preserve"><tspan x="57.4" y="24.0">RDF</tspan><tspan x="27.7" y="46.0">Datenbereit</tspan><tspan x="49.9" y="68.0">steller</tspan></text></g><g transform="translate(565.000000,844.646000)" id="shape71"><path fill="#ffffff" fill-rule="nonzero" d="M91.0,10.0C91.0,4.5,95.5,.0,101.0,.0C106.5,.0,111.0,4.5,111.0,10.0L111.0,10.0C111.0,15.5,106.5,20.0,101.0,20.0C95.5,20.0,91.0,15.5,91.0,10.0z"/><path fill="none" stroke="#101843" d="M91.0,10.0C91.0,4.5,95.5,.0,101.0,.0C106.5,.0,111.0,4.5,111.0,10.0L111.0,10.0C111.0,15.5,106.5,20.0,101.0,20.0C95.5,20.0,91.0,15.5,91.0,10.0zM.0,10.0L91.0,10.0" stroke-width="1"/></g><g transform="translate(552.117000,803.172000)" id="shape72"><text style="fill:#191919;font-family:Microsoft YaHei;font-size:12.00pt" xml:space="preserve"><tspan x="44.4" y="25.0">RDF</tspan><tspan x="27.9" y="47.0">Provider</tspan><tspan x="10.5" y="69.0">[rdf-xml, rdf-</tspan><tspan x="14.7" y="91.0">json, rdf-ttl]</tspan></text></g><g transform="translate(659.770000,827.346000)" id="shape73"><text style="fill:#191919;font-family:Microsoft YaHei;font-size:12.00pt" xml:space="preserve"><tspan x="44.4" y="22.0">RDF</tspan><tspan x="37.0" y="44.0">Daten</tspan></text></g><g transform="translate(1143.000000,838.646000)" id="group74"><path fill="#ffffff" fill-rule="nonzero" id="shape75" d="M10.0,10.0L54.4,-130.6" stroke="#101843" stroke-width="1"/><path fill="#ffffff" fill-rule="nonzero" id="shape76" d="M.0,.0L20.0,.0L20.0,20.0L.0,20.0L.0,.0z" stroke="#101843" stroke-width="1"/><path transform="translate(44.405761,-140.586331)" fill="#ffffff" fill-rule="nonzero" id="shape77" d="M.0,10.0C.0,4.5,4.5,.0,10.0,.0C15.5,.0,20.0,4.5,20.0,10.0C20.0,15.5,15.5,20.0,10.0,20.0C4.5,20.0,.0,15.5,.0,10.0z" stroke="#101843" stroke-width="1"/></g><g transform="translate(1265.000000,667.705000)" id="group78"><path transform="translate(16.000000,0.000000)" fill="#ffffff" fill-rule="nonzero" id="shape79" d="M.0,.0L114.0,.0L114.0,80.0L.0,80.0L.0,.0z" stroke="#101843" stroke-width="1"/><path transform="translate(0.000000,12.000000)" fill="#ffffff" fill-rule="nonzero" id="shape80" d="M.0,.0L32.0,.0L32.0,16.0L.0,16.0L.0,.0z" stroke="#101843" stroke-width="1"/><path transform="translate(0.000000,52.000000)" fill="#ffffff" fill-rule="nonzero" id="shape81" d="M.0,.0L32.0,.0L32.0,16.0L.0,16.0L.0,.0z" stroke="#101843" stroke-width="1"/><text style="fill:#191919;font-family:Microsoft YaHei;font-size:12.00pt" xml:space="preserve"><tspan x="51.3" y="35.0">DCAT</tspan><tspan x="38.3" y="57.0">Validator</tspan></text></g><g transform="translate(1382.290000,697.705000)" id="group82"><path fill="none" id="shape83" stroke="#101843" d="M10.0,10.0L99.9,10.0" stroke-width="1"/><path fill="#ffffff" fill-rule="nonzero" id="shape84" d="M.0,.0L20.0,.0L20.0,20.0L.0,20.0L.0,.0z" stroke="#101843" stroke-width="1"/><path transform="translate(89.930000,0.000000)" fill="#ffffff" fill-rule="nonzero" id="shape85" d="M.0,10.0C.0,4.5,4.5,.0,10.0,.0C15.5,.0,20.0,4.5,20.0,10.0C20.0,15.5,15.5,20.0,10.0,20.0C4.5,20.0,.0,15.5,.0,10.0z" stroke="#101843" stroke-width="1"/></g><g transform="translate(1275.000000,697.705000)" id="group86"><path fill="none" id="shape87" stroke="#101843" d="M10.0,10.0L-61.6,10.3" stroke-width="1"/><path fill="#ffffff" fill-rule="nonzero" id="shape88" d="M.0,.0L20.0,.0L20.0,20.0L.0,20.0L.0,.0z" stroke="#101843" stroke-width="1"/><path transform="translate(-93.594239,-5.645331)" fill="none" id="shape89" stroke="#101843" d="M15.9,.0C16.0,.0,16.0,.0,16.0,.0C24.8,.0,32.0,7.2,32.0,16.0C32.0,24.8,24.9,32.0,16.1,32.0" stroke-width="1"/></g><g transform="translate(1174.000000,650.520000)" id="shape90"><text style="fill:#191919;font-family:Microsoft YaHei;font-size:12.00pt" xml:space="preserve"><tspan x="38.3" y="22.0">DCAT</tspan><tspan x="37.0" y="44.0">Daten</tspan></text></g><g transform="translate(1382.290000,631.520000)" id="shape91"><text style="fill:#191919;font-family:Microsoft YaHei;font-size:12.00pt" xml:space="preserve"><tspan x="23.6" y="22.0">Validierte</tspan><tspan x="38.3" y="44.0">DCAT</tspan><tspan x="37.0" y="66.0">Daten</tspan></text></g><g transform="translate(1143.000000,610.172000)" id="group92"><path fill="#ffffff" fill-rule="nonzero" id="shape93" d="M10.0,10.0L54.4,97.9" stroke="#101843" stroke-width="1"/><path fill="#ffffff" fill-rule="nonzero" id="shape94" d="M.0,.0L20.0,.0L20.0,20.0L.0,20.0L.0,.0z" stroke="#101843" stroke-width="1"/><path transform="translate(44.405761,87.887669)" fill="#ffffff" fill-rule="nonzero" id="shape95" d="M.0,10.0C.0,4.5,4.5,.0,10.0,.0C15.5,.0,20.0,4.5,20.0,10.0C20.0,15.5,15.5,20.0,10.0,20.0C4.5,20.0,.0,15.5,.0,10.0z" stroke="#101843" stroke-width="1"/></g><g transform="translate(431.844000,1144.650000)" id="group96"><path transform="translate(16.000000,0.000000)" fill="#ffffff" fill-rule="nonzero" id="shape97" d="M.0,.0L114.0,.0L114.0,80.0L.0,80.0L.0,.0z" stroke="#101843" stroke-width="1"/><path transform="translate(0.000000,12.000000)" fill="#ffffff" fill-rule="nonzero" id="shape98" d="M.0,.0L32.0,.0L32.0,16.0L.0,16.0L.0,.0z" stroke="#101843" stroke-width="1"/><path transform="translate(0.000000,52.000000)" fill="#ffffff" fill-rule="nonzero" id="shape99" d="M.0,.0L32.0,.0L32.0,16.0L.0,16.0L.0,.0z" stroke="#101843" stroke-width="1"/><text style="fill:#191919;font-family:Microsoft YaHei;font-size:12.00pt" xml:space="preserve"><tspan x="43.7" y="35.0">Nutzer/</tspan><tspan x="42.2" y="57.0">Browser</tspan></text></g><g transform="translate(749.000000,1102.655000)" id="group100"><path transform="translate(16.000000,0.000000)" fill="#ffffff" fill-rule="nonzero" id="shape101" d="M.0,.0L114.0,.0L114.0,164.3L.0,164.3L.0,.0z" stroke="#101843" stroke-width="1"/><path transform="translate(0.000000,33.087500)" fill="#ffffff" fill-rule="nonzero" id="shape102" d="M.0,.0L32.0,.0L32.0,16.0L.0,16.0L.0,.0z" stroke="#101843" stroke-width="1"/><path transform="translate(0.000000,115.262000)" fill="#ffffff" fill-rule="nonzero" id="shape103" d="M.0,.0L32.0,.0L32.0,16.0L.0,16.0L.0,.0z" stroke="#101843" stroke-width="1"/><text style="fill:#191919;font-family:Microsoft YaHei;font-size:12.00pt" xml:space="preserve"><tspan x="55.2" y="55.5">Web</tspan><tspan x="26.6" y="77.5">Anwendung</tspan><tspan x="20.2" y="99.5">datenadler.de</tspan><tspan x="44.1" y="121.5">[VUEJS]</tspan></text></g><g transform="matrix(-1.000000,0.000000,0.000000,-1.000000,765.000000,1194.830000)" id="shape104"><path fill="#ffffff" fill-rule="nonzero" d="M75.0,10.0C75.0,4.5,79.5,.0,85.0,.0C90.5,.0,95.0,4.5,95.0,10.0L95.0,10.0C95.0,15.5,90.5,20.0,85.0,20.0C79.5,20.0,75.0,15.5,75.0,10.0z"/><path fill="none" stroke="#101843" d="M75.0,10.0C75.0,4.5,79.5,.0,85.0,.0C90.5,.0,95.0,4.5,95.0,10.0L95.0,10.0C95.0,15.5,90.5,20.0,85.0,20.0C79.5,20.0,75.0,15.5,75.0,10.0zM.0,10.0L75.0,10.0" stroke-width="1"/></g><g transform="translate(654.291000,1138.020000)" id="shape105"><text style="fill:#191919;font-family:Microsoft YaHei;font-size:12.00pt" xml:space="preserve"><tspan x="23.2" y="23.5">Response</tspan></text></g><path transform="matrix(-0.999999,-0.001523,0.001523,-0.999999,679.975625,1200.829981)" fill="none" id="shape106" stroke="#101843" d="M.0,.0C8.8,.0,16.0,7.2,16.0,16.0C16.0,24.8,8.8,32.0,.0,32.0M16.0,16.0L118.2,16.0" stroke-width="1"/><g transform="translate(544.135000,1189.650000)" id="shape107"><text style="fill:#191919;font-family:Microsoft YaHei;font-size:12.00pt" xml:space="preserve"><tspan x="29.0" y="23.5">Request</tspan></text></g><g transform="translate(1134.000000,935.000000)" id="group108"><path transform="translate(16.000000,0.000000)" fill="#ffffff" fill-rule="nonzero" id="shape109" d="M.0,.0L239.0,.0L239.0,407.0L.0,407.0L.0,.0z" stroke="#101843" stroke-width="1"/><path transform="translate(0.000000,93.750000)" fill="#ffffff" fill-rule="nonzero" id="shape110" d="M.0,.0L32.0,.0L32.0,16.0L.0,16.0L.0,.0z" stroke="#101843" stroke-width="1"/><path transform="translate(0.000000,297.250000)" fill="#ffffff" fill-rule="nonzero" id="shape111" d="M.0,.0L32.0,.0L32.0,16.0L.0,16.0L.0,.0z" stroke="#101843" stroke-width="1"/><text style="fill:#191919;font-family:Microsoft YaHei;font-size:12.00pt" xml:space="preserve"><tspan x="91.9" y="187.5">Application</tspan><tspan x="111.5" y="209.5">Server</tspan><tspan x="111.3" y="231.5">[Flask]</tspan></text></g><g transform="translate(1143.000000,1176.727500)" id="group112"><path fill="none" id="shape113" stroke="#101843" d="M10.0,10.0L-141.0,10.0" stroke-width="1"/><path fill="#ffffff" fill-rule="nonzero" id="shape114" d="M.0,.0L20.0,.0L20.0,20.0L.0,20.0L.0,.0z" stroke="#101843" stroke-width="1"/><path transform="translate(-151.000000,0.000000)" fill="#ffffff" fill-rule="nonzero" id="shape115" d="M.0,10.0C.0,4.5,4.5,.0,10.0,.0C15.5,.0,20.0,4.5,20.0,10.0C20.0,15.5,15.5,20.0,10.0,20.0C4.5,20.0,.0,15.5,.0,10.0z" stroke="#101843" stroke-width="1"/></g><g transform="translate(999.000000,1081.020000)" id="shape116"><text style="fill:#191919;font-family:Microsoft YaHei;font-size:12.00pt" xml:space="preserve"><tspan x="12.3" y="30.0">Webservices</tspan><tspan x="12.0" y="52.0">für Frontend</tspan><tspan x="38.8" y="74.0">[json]</tspan></text></g><path transform="matrix(-0.999881,-0.015425,0.015425,-0.999881,1001.753200,1202.725596)" fill="none" id="shape117" stroke="#101843" d="M.0,.0C8.8,.0,16.0,7.2,16.0,16.0C16.0,24.8,8.8,32.0,.0,32.0M16.0,16.0L123.0,16.0" stroke-width="1"/><g transform="translate(872.291000,1192.520000)" id="shape118"><text style="fill:#191919;font-family:Microsoft YaHei;font-size:12.00pt" xml:space="preserve"><tspan x="8.1" y="22.0">Daten/Search </tspan><tspan x="25.3" y="44.0">Requests</tspan></text></g><g transform="translate(999.000000,926.239028)" id="shape119"><text style="fill:#191919;font-family:Microsoft YaHei;font-size:12.00pt" xml:space="preserve"><tspan x="16.0" y="30.0">Webservice</tspan><tspan x="14.7" y="52.0">für Govdata</tspan><tspan x="26.6" y="74.0">[rdf-xml]</tspan></text></g><g transform="translate(432.844000,964.650000)" id="group120"><path transform="translate(16.000000,0.000000)" fill="#ffffff" fill-rule="nonzero" id="shape121" d="M.0,.0L114.0,.0L114.0,80.0L.0,80.0L.0,.0z" stroke="#101843" stroke-width="1"/><path transform="translate(0.000000,12.000000)" fill="#ffffff" fill-rule="nonzero" id="shape122" d="M.0,.0L32.0,.0L32.0,16.0L.0,16.0L.0,.0z" stroke="#101843" stroke-width="1"/><path transform="translate(0.000000,52.000000)" fill="#ffffff" fill-rule="nonzero" id="shape123" d="M.0,.0L32.0,.0L32.0,16.0L.0,16.0L.0,.0z" stroke="#101843" stroke-width="1"/><text style="fill:#191919;font-family:Microsoft YaHei;font-size:12.00pt" xml:space="preserve"><tspan x="39.9" y="46.0">GovData</tspan></text></g><path transform="matrix(-0.999989,-0.004723,0.004723,-0.999989,963.924439,1022.544322)" fill="none" id="shape124" stroke="#101843" d="M.0,.0C8.8,.0,16.0,7.2,16.0,16.0C16.0,24.8,8.8,32.0,.0,32.0M16.0,16.0L401.2,16.0" stroke-width="1"/><g transform="translate(544.135000,1003.020000)" id="shape125"><text style="fill:#191919;font-family:Microsoft YaHei;font-size:12.00pt" xml:space="preserve"><tspan x="30.9" y="23.5">Harvest</tspan><tspan x="29.0" y="45.5">Request</tspan></text></g><g transform="translate(432.844000,1466.650000)" id="group126"><path transform="translate(16.000000,0.000000)" fill="#ffffff" fill-rule="nonzero" id="shape127" d="M.0,.0L114.0,.0L114.0,80.0L.0,80.0L.0,.0z" stroke="#101843" stroke-width="1"/><path transform="translate(0.000000,12.000000)" fill="#ffffff" fill-rule="nonzero" id="shape128" d="M.0,.0L32.0,.0L32.0,16.0L.0,16.0L.0,.0z" stroke="#101843" stroke-width="1"/><path transform="translate(0.000000,52.000000)" fill="#ffffff" fill-rule="nonzero" id="shape129" d="M.0,.0L32.0,.0L32.0,16.0L.0,16.0L.0,.0z" stroke="#101843" stroke-width="1"/><text style="fill:#191919;font-family:Microsoft YaHei;font-size:12.00pt" xml:space="preserve"><tspan x="47.7" y="46.0">Admin</tspan></text></g><g transform="translate(429.844000,1724.650000)" id="group130"><path transform="translate(16.000000,0.000000)" fill="#ffffff" fill-rule="nonzero" id="shape131" d="M.0,.0L128.2,.0L128.2,80.0L.0,80.0L.0,.0z" stroke="#101843" stroke-width="1"/><path transform="translate(0.000000,12.000000)" fill="#ffffff" fill-rule="nonzero" id="shape132" d="M.0,.0L32.0,.0L32.0,16.0L.0,16.0L.0,.0z" stroke="#101843" stroke-width="1"/><path transform="translate(0.000000,52.000000)" fill="#ffffff" fill-rule="nonzero" id="shape133" d="M.0,.0L32.0,.0L32.0,16.0L.0,16.0L.0,.0z" stroke="#101843" stroke-width="1"/><text style="fill:#191919;font-family:Microsoft YaHei;font-size:12.00pt" xml:space="preserve"><tspan x="44.7" y="24.0">Manuelle </tspan><tspan x="53.7" y="46.0">Daten-</tspan><tspan x="34.8" y="68.0">Bereitsteller</tspan></text></g><g transform="translate(1131.000000,1437.000000)" id="group134"><path transform="translate(16.000000,0.000000)" fill="#ffffff" fill-rule="nonzero" id="shape135" d="M.0,.0L315.0,.0L315.0,396.0L.0,396.0L.0,.0z" stroke="#101843" stroke-width="1"/><path transform="translate(0.000000,91.000000)" fill="#ffffff" fill-rule="nonzero" id="shape136" d="M.0,.0L32.0,.0L32.0,16.0L.0,16.0L.0,.0z" stroke="#101843" stroke-width="1"/><path transform="translate(0.000000,289.000000)" fill="#ffffff" fill-rule="nonzero" id="shape137" d="M.0,.0L32.0,.0L32.0,16.0L.0,16.0L.0,.0z" stroke="#101843" stroke-width="1"/></g><g transform="translate(1209.296000,1446.520000)" id="shape138"><text style="fill:#191919;font-family:Microsoft YaHei;font-size:12.00pt" xml:space="preserve"><tspan x="11.4" y="22.0">Backend und Verwaltung</tspan><tspan x="80.4" y="44.0">[Plone]</tspan></text></g><g transform="translate(1226.295700,1715.000000)" id="group139"><path transform="translate(16.000000,0.000000)" fill="#ffffff" fill-rule="nonzero" id="shape140" d="M.0,.0L172.7,.0L172.7,98.0L.0,98.0L.0,.0z" stroke="#101843" stroke-width="1"/><path transform="translate(0.000000,16.500000)" fill="#ffffff" fill-rule="nonzero" id="shape141" d="M.0,.0L32.0,.0L32.0,16.0L.0,16.0L.0,.0z" stroke="#101843" stroke-width="1"/><path transform="translate(0.000000,65.500000)" fill="#ffffff" fill-rule="nonzero" id="shape142" d="M.0,.0L32.0,.0L32.0,16.0L.0,16.0L.0,.0z" stroke="#101843" stroke-width="1"/><text style="fill:#191919;font-family:Microsoft YaHei;font-size:12.00pt" xml:space="preserve"><tspan x="28.9" y="44.0">Manuell Eingebene</tspan><tspan x="55.4" y="66.0">DCAT Daten</tspan></text></g><g transform="translate(1221.285000,1502.000000)" id="group143"><path transform="translate(16.000000,0.000000)" fill="#ffffff" fill-rule="nonzero" id="shape144" d="M.0,.0L173.7,.0L173.7,98.0L.0,98.0L.0,.0z" stroke="#101843" stroke-width="1"/><path transform="translate(0.000000,16.500000)" fill="#ffffff" fill-rule="nonzero" id="shape145" d="M.0,.0L32.0,.0L32.0,16.0L.0,16.0L.0,.0z" stroke="#101843" stroke-width="1"/><path transform="translate(0.000000,65.500000)" fill="#ffffff" fill-rule="nonzero" id="shape146" d="M.0,.0L32.0,.0L32.0,16.0L.0,16.0L.0,.0z" stroke="#101843" stroke-width="1"/><text style="fill:#191919;font-family:Microsoft YaHei;font-size:12.00pt" xml:space="preserve"><tspan x="39.3" y="44.0">Harvest/Transfer </tspan><tspan x="50.2" y="66.0">Konfiguration</tspan></text></g><g transform="translate(1225.285000,1608.000000)" id="group147"><path transform="translate(16.000000,0.000000)" fill="#ffffff" fill-rule="nonzero" id="shape148" d="M.0,.0L173.7,.0L173.7,98.0L.0,98.0L.0,.0z" stroke="#101843" stroke-width="1"/><path transform="translate(0.000000,16.500000)" fill="#ffffff" fill-rule="nonzero" id="shape149" d="M.0,.0L32.0,.0L32.0,16.0L.0,16.0L.0,.0z" stroke="#101843" stroke-width="1"/><path transform="translate(0.000000,65.500000)" fill="#ffffff" fill-rule="nonzero" id="shape150" d="M.0,.0L32.0,.0L32.0,16.0L.0,16.0L.0,.0z" stroke="#101843" stroke-width="1"/><text style="fill:#191919;font-family:Microsoft YaHei;font-size:12.00pt" xml:space="preserve"><tspan x="24.4" y="44.0">Redaktionale Inhalte </tspan><tspan x="26.7" y="66.0">für Webanwendung</tspan></text></g><g transform="translate(969.435000,1389.520000)" id="shape151"><text style="fill:#191919;font-family:Microsoft YaHei;font-size:12.00pt" xml:space="preserve"><tspan x="27.8" y="47.0">Webservice für </tspan><tspan x="28.2" y="69.0">Administration</tspan><tspan x="56.9" y="91.0">[HTML]</tspan></text></g><path transform="matrix(-1.000000,0.000858,-0.000858,-1.000000,964.013724,1522.305910)" fill="none" id="shape152" stroke="#101843" d="M.0,.0C8.8,.0,16.0,7.2,16.0,16.0C16.0,24.8,8.8,32.0,.0,32.0M16.0,16.0L401.2,16.0" stroke-width="1"/><g transform="translate(585.291700,1460.020000)" id="shape153"><text style="fill:#191919;font-family:Microsoft YaHei;font-size:12.00pt" xml:space="preserve"><tspan x="11.2" y="34.5">Administration</tspan></text></g><g transform="translate(1134.000000,1496.305916)" id="group154"><path fill="none" id="shape155" stroke="#101843" d="M10.0,10.0L-170.0,10.0" stroke-width="1"/><path fill="#ffffff" fill-rule="nonzero" id="shape156" d="M.0,.0L20.0,.0L20.0,20.0L.0,20.0L.0,.0z" stroke="#101843" stroke-width="1"/><path transform="translate(-180.000000,0.000000)" fill="#ffffff" fill-rule="nonzero" id="shape157" d="M.0,10.0C.0,4.5,4.5,.0,10.0,.0C15.5,.0,20.0,4.5,20.0,10.0C20.0,15.5,15.5,20.0,10.0,20.0C4.5,20.0,.0,15.5,.0,10.0z" stroke="#101843" stroke-width="1"/></g><g transform="translate(1154.000000,1504.865916)" id="shape158"><path fill="none" stroke="#191919" d="M.0,.0L39.0,.0L39.0,47.0L83.0,47.0" stroke-width="1"/><path stroke-linejoin="round" fill="none" stroke-linecap="round" stroke="#191919" d="M71.0,41.0L83.0,47.0L71.0,53.0" stroke-width="1"/></g><g transform="translate(1155.172600,1504.865916)" id="shape159"><path fill="none" stroke="#191919" d="M.0,.0L32.8,.0L32.8,152.1L86.1,152.1" stroke-width="1"/><path stroke-linejoin="round" fill="none" stroke-linecap="round" stroke="#191919" d="M74.1,146.1L86.1,152.1L74.1,158.1" stroke-width="1"/></g><g transform="translate(1143.000000,1754.000000)" id="group160"><path fill="none" id="shape161" stroke="#101843" d="M10.0,10.0L-283.0,10.0" stroke-width="1"/><path fill="#ffffff" fill-rule="nonzero" id="shape162" d="M.0,.0L20.0,.0L20.0,20.0L.0,20.0L.0,.0z" stroke="#101843" stroke-width="1"/><path transform="translate(-293.000000,0.000000)" fill="#ffffff" fill-rule="nonzero" id="shape163" d="M.0,10.0C.0,4.5,4.5,.0,10.0,.0C15.5,.0,20.0,4.5,20.0,10.0C20.0,15.5,15.5,20.0,10.0,20.0C4.5,20.0,.0,15.5,.0,10.0z" stroke="#101843" stroke-width="1"/></g><path transform="matrix(-0.999997,0.002273,-0.002273,-0.999997,860.036364,1779.999959)" fill="none" id="shape164" stroke="#101843" d="M.0,.0C8.8,.0,16.0,7.2,16.0,16.0C16.0,24.8,8.8,32.0,.0,32.0M16.0,16.0L286.0,16.0" stroke-width="1"/><g transform="translate(580.291700,1720.020000)" id="shape165"><text style="fill:#191919;font-family:Microsoft YaHei;font-size:12.00pt" xml:space="preserve"><tspan x="12.1" y="34.5">DCAT-Eingabe</tspan></text></g><g transform="translate(961.217500,1740.000000)" id="shape166"><text style="fill:#191919;font-family:Microsoft YaHei;font-size:12.00pt" xml:space="preserve"><tspan x="36.1" y="49.0">Webservice für </tspan><tspan x="17.4" y="71.0">Datenbereitstellung</tspan><tspan x="65.1" y="93.0">[HTML]</tspan></text></g><g transform="translate(1163.000000,1764.000000)" id="shape168"><path fill="none" stroke="#191919" d="M.0,.0L79.0,.0" stroke-width="1"/><path stroke-linejoin="round" fill="none" stroke-linecap="round" stroke="#191919" d="M67.0,-6.0L79.0,.0L67.0,6.0" stroke-width="1"/></g><g transform="translate(1134.000000,1647.000000)" id="group169"><path fill="none" id="shape170" stroke="#101843" d="M10.0,10.0L-227.0,10.0" stroke-width="1"/><path fill="#ffffff" fill-rule="nonzero" id="shape171" d="M.0,.0L20.0,.0L20.0,20.0L.0,20.0L.0,.0z" stroke="#101843" stroke-width="1"/><path transform="translate(-237.000000,0.000000)" fill="#ffffff" fill-rule="nonzero" id="shape172" d="M.0,10.0C.0,4.5,4.5,.0,10.0,.0C15.5,.0,20.0,4.5,20.0,10.0C20.0,15.5,15.5,20.0,10.0,20.0C4.5,20.0,.0,15.5,.0,10.0z" stroke="#101843" stroke-width="1"/></g><g transform="translate(1153.290000,1657.000000)" id="shape173"><path fill="none" stroke="#191919" d="M.0,.0L88.0,.0" stroke-width="1"/><path stroke-linejoin="round" fill="none" stroke-linecap="round" stroke="#191919" d="M76.0,-6.0L88.0,.0L76.0,6.0" stroke-width="1"/></g><g transform="translate(969.435000,1555.749322)" id="shape174"><text style="fill:#191919;font-family:Microsoft YaHei;font-size:12.00pt" xml:space="preserve"><tspan x="25.5" y="25.0">Webservice für </tspan><tspan x="28.1" y="47.0">Redaktioonale. </tspan><tspan x="58.7" y="69.0">Inhalte</tspan><tspan x="46.8" y="91.0">[Rest-API]</tspan></text></g><path transform="matrix(-0.234333,-0.972156,0.972156,-0.234333,891.445496,1660.749322)" fill="none" id="shape175" stroke="#101843" d="M.0,.0C8.8,.0,16.0,7.2,16.0,16.0C16.0,24.8,8.8,32.0,.0,32.0M16.0,16.0L401.2,16.0" stroke-width="1"/><g transform="translate(1566.903800,1109.455500)" id="group176"><path transform="translate(16.000000,0.000000)" fill="#ffffff" fill-rule="nonzero" id="shape177" d="M.0,.0L147.4,.0L147.4,212.0L.0,212.0L.0,.0z" stroke="#101843" stroke-width="1"/><path transform="translate(0.000000,45.000000)" fill="#ffffff" fill-rule="nonzero" id="shape178" d="M.0,.0L32.0,.0L32.0,16.0L.0,16.0L.0,.0z" stroke="#101843" stroke-width="1"/><path transform="translate(0.000000,151.000000)" fill="#ffffff" fill-rule="nonzero" id="shape179" d="M.0,.0L32.0,.0L32.0,16.0L.0,16.0L.0,.0z" stroke="#101843" stroke-width="1"/><text style="fill:#191919;font-family:Microsoft YaHei;font-size:12.00pt" xml:space="preserve"><tspan x="69.2" y="101.0">SOLR</tspan><tspan x="35.7" y="123.0">Search Engine</tspan></text></g><g transform="translate(1585.165000,936.544500)" id="group180"><path transform="translate(16.000000,0.000000)" fill="#ffffff" fill-rule="nonzero" id="shape181" d="M.0,.0L114.0,.0L114.0,80.0L.0,80.0L.0,.0z" stroke="#101843" stroke-width="1"/><path transform="translate(0.000000,12.000000)" fill="#ffffff" fill-rule="nonzero" id="shape182" d="M.0,.0L32.0,.0L32.0,16.0L.0,16.0L.0,.0z" stroke="#101843" stroke-width="1"/><path transform="translate(0.000000,52.000000)" fill="#ffffff" fill-rule="nonzero" id="shape183" d="M.0,.0L32.0,.0L32.0,16.0L.0,16.0L.0,.0z" stroke="#101843" stroke-width="1"/><text style="fill:#191919;font-family:Microsoft YaHei;font-size:12.00pt" xml:space="preserve"><tspan x="26.2" y="35.0">DCAT2SOLR</tspan><tspan x="24.9" y="57.0">Aggregation</tspan></text></g><g transform="translate(1640.165000,813.705000)" id="group184"><path fill="none" id="shape185" stroke="#101843" d="M10.0,10.0L10.0,53.0" stroke-width="1"/><path fill="#ffffff" fill-rule="nonzero" id="shape186" d="M.0,.0L20.0,.0L20.0,20.0L.0,20.0L.0,.0z" stroke="#101843" stroke-width="1"/><path transform="translate(0.000000,42.970100)" fill="#ffffff" fill-rule="nonzero" id="shape187" d="M.0,10.0C.0,4.5,4.5,.0,10.0,.0C15.5,.0,20.0,4.5,20.0,10.0C20.0,15.5,15.5,20.0,10.0,20.0C4.5,20.0,.0,15.5,.0,10.0z" stroke="#101843" stroke-width="1"/></g><g transform="translate(1656.385000,817.544500)" id="shape188"><text style="fill:#191919;font-family:Microsoft YaHei;font-size:12.00pt" xml:space="preserve"><tspan x="29.0" y="27.5">SPARQL</tspan><tspan x="21.6" y="49.5">Endpoints</tspan><tspan x="42.9" y="71.5">read</tspan></text></g><path transform="matrix(0.000000,1.000000,-1.000000,0.000000,1666.165000,866.675100)" fill="none" id="shape189" stroke="#101843" d="M.0,.0C8.8,.0,16.0,7.2,16.0,16.0C16.0,24.8,8.8,32.0,.0,32.0M16.0,16.0L69.9,16.0" stroke-width="1"/><g transform="translate(1537.905000,890.656500)" id="shape190"><text style="fill:#191919;font-family:Microsoft YaHei;font-size:12.00pt" xml:space="preserve"><tspan x="13.0" y="23.5">DCAT Daten</tspan></text></g><g transform="matrix(0.000000,1.000000,-1.000000,0.000000,1660.165000,1016.544500)" id="shape191"><path fill="#ffffff" fill-rule="nonzero" d="M24.9,10.0C24.9,4.5,29.4,.0,34.9,.0C40.4,.0,44.9,4.5,44.9,10.0L44.9,10.0C44.9,15.5,40.4,20.0,34.9,20.0C29.4,20.0,24.9,15.5,24.9,10.0z"/><path fill="none" stroke="#101843" d="M24.9,10.0C24.9,4.5,29.4,.0,34.9,.0C40.4,.0,44.9,4.5,44.9,10.0L44.9,10.0C44.9,15.5,40.4,20.0,34.9,20.0C29.4,20.0,24.9,15.5,24.9,10.0zM.0,10.0L24.9,10.0" stroke-width="1"/></g><g transform="translate(1529.905000,1020.656500)" id="shape192"><text style="fill:#191919;font-family:Microsoft YaHei;font-size:12.00pt" xml:space="preserve"><tspan x="14.2" y="23.5">SOLR Daten</tspan></text></g><path transform="matrix(-0.027059,0.999634,-0.999634,-0.027059,1666.159141,1051.888445)" fill="none" id="shape193" stroke="#101843" d="M.0,.0C8.8,.0,16.0,7.2,16.0,16.0C16.0,24.8,8.8,32.0,.0,32.0M16.0,16.0L58.0,16.0" stroke-width="1"/><g transform="translate(1633.905000,1064.156500)" id="shape194"><text style="fill:#191919;font-family:Microsoft YaHei;font-size:12.00pt" xml:space="preserve"><tspan x="39.5" y="22.0">SOLR </tspan><tspan x="16.0" y="44.0">Webservice</tspan></text></g><g transform="matrix(-1.000000,0.000000,0.000000,-1.000000,1582.903800,1225.455500)" id="shape195"><path fill="#ffffff" fill-rule="nonzero" d="M53.0,10.0C53.0,4.5,57.5,.0,63.0,.0C68.5,.0,73.0,4.5,73.0,10.0L73.0,10.0C73.0,15.5,68.5,20.0,63.0,20.0C57.5,20.0,53.0,15.5,53.0,10.0z"/><path fill="none" stroke="#101843" d="M53.0,10.0C53.0,4.5,57.5,.0,63.0,.0C68.5,.0,73.0,4.5,73.0,10.0L73.0,10.0C73.0,15.5,68.5,20.0,63.0,20.0C57.5,20.0,53.0,15.5,53.0,10.0zM.0,10.0L53.0,10.0" stroke-width="1"/></g><g transform="translate(1480.905000,1217.156500)" id="shape196"><text style="fill:#191919;font-family:Microsoft YaHei;font-size:12.00pt" xml:space="preserve"><tspan x="39.5" y="22.0">SOLR </tspan><tspan x="16.0" y="44.0">Webservice</tspan></text></g><path transform="matrix(-1.000000,0.000000,-0.000000,-1.000000,1519.905007,1231.455500)" fill="none" id="shape197" stroke="#101843" d="M.0,.0C8.8,.0,16.0,7.2,16.0,16.0C16.0,24.8,8.8,32.0,.0,32.0M16.0,16.0L130.9,16.0" stroke-width="1"/><g transform="translate(1375.000000,996.544500)" id="group198"><path fill="none" id="shape199" stroke="#101843" d="M10.0,10.0L172.5,-119.9" stroke-width="1"/><path fill="#ffffff" fill-rule="nonzero" id="shape200" d="M.0,.0L20.0,.0L20.0,20.0L.0,20.0L.0,.0z" stroke="#101843" stroke-width="1"/><path transform="translate(169.000000,-145.869400)" fill="none" id="shape201" stroke="#101843" d="M26.0,28.5C23.3,30.7,19.8,32.0,16.0,32.0C7.2,32.0,.0,24.8,.0,16.0C.0,10.9,2.3,6.4,6.0,3.5" stroke-width="1"/></g><g transform="translate(1550.000000,813.705000)" id="group202"><path fill="none" id="shape203" stroke="#101843" d="M10.0,10.0L10.0,53.0" stroke-width="1"/><path fill="#ffffff" fill-rule="nonzero" id="shape204" d="M.0,.0L20.0,.0L20.0,20.0L.0,20.0L.0,.0z" stroke="#101843" stroke-width="1"/><path transform="translate(0.000000,42.970100)" fill="#ffffff" fill-rule="nonzero" id="shape205" d="M.0,10.0C.0,4.5,4.5,.0,10.0,.0C15.5,.0,20.0,4.5,20.0,10.0C20.0,15.5,15.5,20.0,10.0,20.0C4.5,20.0,.0,15.5,.0,10.0z" stroke="#101843" stroke-width="1"/></g><g transform="translate(1370.615000,1159.727500)" id="shape206"><text style="fill:#191919;font-family:Microsoft YaHei;font-size:12.00pt" xml:space="preserve"><tspan x="32.1" y="22.0">Search </tspan><tspan x="29.0" y="44.0">Request</tspan></text></g><g transform="translate(1388.615000,889.727500)" id="shape207"><text style="fill:#191919;font-family:Microsoft YaHei;font-size:12.00pt" xml:space="preserve"><tspan x="39.7" y="22.0">Data </tspan><tspan x="29.0" y="44.0">Request</tspan></text></g><g transform="translate(1620.000000,660.305714)" id="shape208"><text style="fill:#191919;font-family:Arimo;font-size:12.00pt" xml:space="preserve"><tspan x="32.1" y="32.5">Eine DB pro </tspan><tspan x="12.6" y="51.5">Datenbereitsteller</tspan></text></g><g transform="translate(499.000000,574.646500)" id="shape209"><path fill="none" stroke="#191919" stroke-dasharray="6,4" d="M.0,.0L.0,-28.0L1125.0,-28.0L1125.0,76.0L1153.0,76.0" stroke-width="1"/><path stroke-linejoin="round" fill="none" stroke-linecap="round" stroke="#191919" d="M1141.0,70.0L1153.0,76.0L1141.0,82.0" stroke-width="1"/><rect x="703.7" height="19.0" y="-53.5" fill="#ffffff" width="309.2"/><text style="fill:#191919;font-family:Arimo;font-size:12.00pt" xml:space="preserve"><tspan x="703.7" y="-38.5">Für jeden Datenbereisteller eine RDF4J-DB</tspan></text></g><g transform="translate(500.000000,814.646000)" id="shape210"><path fill="none" stroke="#191919" stroke-dasharray="6,4" d="M.0,.0L.0,-28.0L1108.0,-28.0L1108.0,-72.0L1152.0,-72.0" stroke-width="1"/><path stroke-linejoin="round" fill="none" stroke-linecap="round" stroke="#191919" d="M1140.0,-78.0L1152.0,-72.0L1140.0,-66.0" stroke-width="1"/><rect x="430.8" height="19.0" y="-53.5" fill="#ffffff" width="309.2"/><text style="fill:#191919;font-family:Arimo;font-size:12.00pt" xml:space="preserve"><tspan x="430.8" y="-38.5">Für jeden Datenbereisteller eine RDF4J-DB</tspan></text></g><g transform="translate(1143.000000,996.544500)" id="group211"><path fill="none" id="shape212" stroke="#101843" d="M10.0,10.0L-179.0,10.0" stroke-width="1"/><path fill="#ffffff" fill-rule="nonzero" id="shape213" d="M.0,.0L20.0,.0L20.0,20.0L.0,20.0L.0,.0z" stroke="#101843" stroke-width="1"/><path transform="translate(-189.000000,0.000000)" fill="#ffffff" fill-rule="nonzero" id="shape214" d="M.0,10.0C.0,4.5,4.5,.0,10.0,.0C15.5,.0,20.0,4.5,20.0,10.0C20.0,15.5,15.5,20.0,10.0,20.0C4.5,20.0,.0,15.5,.0,10.0z" stroke="#101843" stroke-width="1"/></g></g></svg>