<svg height="582" xmlns="http://www.w3.org/2000/svg" viewBox="0 0 973 582" xmlns:xlink="http://www.w3.org/1999/xlink" width="973"><defs/><g transform="translate(-120.00,-82.00)"><g transform="translate(460.000000,259.000000)" id="shape1"><path fill="#ffffff" fill-rule="nonzero" d="M.0,40.0C.0,17.9,26.9,.0,60.0,.0C93.1,.0,120.0,17.9,120.0,40.0C120.0,62.1,93.1,80.0,60.0,80.0C26.9,80.0,.0,62.1,.0,40.0z" stroke="#101843" stroke-width="1"/><text style="fill:#191919;font-family:Arimo;font-size:12.00pt" xml:space="preserve"><tspan x="10.2" y="45.5">Datenadler.de</tspan></text></g><g transform="translate(504.000000,83.000000)" id="group2"><path transform="translate(0.000000,17.600000)" fill="none" id="shape3" stroke="#323232" d="M16.0,.0L16.0,21.2L.0,42.4M16.0,21.2L32.0,42.4M.0,8.5L32.0,8.5" stroke-width="1"/><path transform="translate(7.200000,0.000000)" fill="#ffffff" fill-rule="nonzero" id="shape4" d="M.0,8.8C.0,3.9,3.9,.0,8.8,.0C13.7,.0,17.6,3.9,17.6,8.8C17.6,13.7,13.7,17.6,8.8,17.6C3.9,17.6,.0,13.7,.0,8.8z" stroke="#323232" stroke-width="1"/><text style="fill:#191919;font-family:Arimo;font-size:12.00pt" xml:space="preserve"><tspan x="-15.1" y="79.2">Besucher</tspan></text></g><g transform="translate(520.000000,259.000000)" id="shape5"><path fill="none" stroke="#191919" d="M.0,-6.0L.0,-116.0" stroke-width="1"/><path fill="#191919" stroke-linecap="round" stroke="#191919" d="M3.0,-6.0L.0,.0L-3.0,-6.0L3.0,-6.0" stroke-width="1"/><rect x="-41.2" height="19.0" y="-65.6" fill="#ffffff" width="84.4"/><text style="fill:#191919;font-family:Arimo;font-size:12.00pt" xml:space="preserve"><tspan x="-41.2" y="-50.6">recherchiert</tspan></text></g><g transform="translate(170.000000,269.000000)" id="group6"><path transform="translate(0.000000,17.600000)" fill="none" id="shape7" stroke="#323232" d="M16.0,.0L16.0,21.2L.0,42.4M16.0,21.2L32.0,42.4M.0,8.5L32.0,8.5" stroke-width="1"/><path transform="translate(7.200000,0.000000)" fill="#ffffff" fill-rule="nonzero" id="shape8" d="M.0,8.8C.0,3.9,3.9,.0,8.8,.0C13.7,.0,17.6,3.9,17.6,8.8C17.6,13.7,13.7,17.6,8.8,17.6C3.9,17.6,.0,13.7,.0,8.8z" stroke="#323232" stroke-width="1"/><text style="fill:#191919;font-family:Arimo;font-size:12.00pt" xml:space="preserve"><tspan x="-44.0" y="79.2">Datenbereitsteller</tspan></text></g><g transform="translate(580.000000,299.000000)" id="shape9"><path fill="none" stroke="#191919" d="M6.0,.0L204.0,.0" stroke-width="1"/><path fill="#191919" stroke-linecap="round" stroke="#191919" d="M6.0,3.0L.0,.0L6.0,-3.0L6.0,3.0" stroke-width="1"/><rect x="50.4" height="19.0" y="-9.5" fill="#ffffff" width="117.3"/><text style="fill:#191919;font-family:Arimo;font-size:12.00pt" xml:space="preserve"><tspan x="50.4" y="5.5">wird geharvestet</tspan></text></g><g transform="translate(784.000000,269.000000)" id="group10"><path transform="translate(0.000000,17.600000)" fill="none" id="shape11" stroke="#323232" d="M16.0,.0L16.0,21.2L.0,42.4M16.0,21.2L32.0,42.4M.0,8.5L32.0,8.5" stroke-width="1"/><path transform="translate(7.200000,0.000000)" fill="#ffffff" fill-rule="nonzero" id="shape12" d="M.0,8.8C.0,3.9,3.9,.0,8.8,.0C13.7,.0,17.6,3.9,17.6,8.8C17.6,13.7,13.7,17.6,8.8,17.6C3.9,17.6,.0,13.7,.0,8.8z" stroke="#323232" stroke-width="1"/><text style="fill:#191919;font-family:Arimo;font-size:12.00pt" xml:space="preserve"><tspan x="-12.9" y="79.2">GovData</tspan></text></g><g transform="translate(478.263019,270.263439)" id="shape13"><path fill="none" stroke="#191919" d="M.0,-5.3L-127.3,-5.3L-127.3,-127.3" stroke-width="1"/><path fill="#191919" stroke-linecap="round" stroke="#191919" d="M3.0,-6.0L.0,.0L-3.0,-6.0L3.0,-6.0" stroke-width="1"/><rect x="-158.2" height="19.0" y="-83.1" fill="#ffffff" width="64.0"/><text style="fill:#191919;font-family:Arimo;font-size:12.00pt" xml:space="preserve"><tspan x="-158.2" y="-68.1">verwaltet</tspan></text></g><g transform="translate(335.000000,83.000000)" id="group14"><path transform="translate(0.000000,17.600000)" fill="none" id="shape15" stroke="#323232" d="M16.0,.0L16.0,21.2L.0,42.4M16.0,21.2L32.0,42.4M.0,8.5L32.0,8.5" stroke-width="1"/><path transform="translate(7.200000,0.000000)" fill="#ffffff" fill-rule="nonzero" id="shape16" d="M.0,8.8C.0,3.9,3.9,.0,8.8,.0C13.7,.0,17.6,3.9,17.6,8.8C17.6,13.7,13.7,17.6,8.8,17.6C3.9,17.6,.0,13.7,.0,8.8z" stroke="#323232" stroke-width="1"/><text style="fill:#191919;font-family:Arimo;font-size:12.00pt" xml:space="preserve"><tspan x="-4.0" y="79.2">Admin</tspan></text></g><g transform="translate(520.000000,339.000000)" id="shape17"><path fill="none" stroke="#191919" d="M.0,.0L.0,57.0" stroke-width="1"/><path fill="#191919" stroke-linecap="round" stroke="#191919" d="M3.0,57.0L.0,63.0L-3.0,57.0L3.0,57.0" stroke-width="1"/><rect x="-27.4" height="19.0" y="22.9" fill="#ffffff" width="56.9"/><text style="fill:#191919;font-family:Arimo;font-size:12.00pt" xml:space="preserve"><tspan x="-27.4" y="37.9">läuft auf</tspan></text></g><g transform="translate(460.000000,402.000000)" id="shape18"><path fill="#ffffff" fill-rule="nonzero" d="M.0,40.0C.0,17.9,26.9,.0,60.0,.0C93.1,.0,120.0,17.9,120.0,40.0C120.0,62.1,93.1,80.0,60.0,80.0C26.9,80.0,.0,62.1,.0,40.0z" stroke="#101843" stroke-width="1"/><text style="fill:#191919;font-family:Arimo;font-size:12.00pt" xml:space="preserve"><tspan x="31.3" y="26.5">Virtuelle </tspan><tspan x="25.8" y="45.5">Maschine</tspan><tspan x="21.8" y="64.5">Produktion</tspan></text></g><g transform="translate(520.000000,482.000000)" id="shape19"><path fill="none" stroke="#191919" d="M.0,.0L.0,54.0" stroke-width="1"/><path fill="#191919" stroke-linecap="round" stroke="#191919" d="M3.0,54.0L.0,60.0L-3.0,54.0L3.0,54.0" stroke-width="1"/><rect x="-25.2" height="19.0" y="24.4" fill="#ffffff" width="52.4"/><text style="fill:#191919;font-family:Arimo;font-size:12.00pt" xml:space="preserve"><tspan x="-25.2" y="39.4">Läuft in</tspan></text></g><g transform="translate(460.000000,542.000000)" id="shape20"><path fill="#ffffff" fill-rule="nonzero" d="M.0,40.0C.0,17.9,26.9,.0,60.0,.0C93.1,.0,120.0,17.9,120.0,40.0C120.0,62.1,93.1,80.0,60.0,80.0C26.9,80.0,.0,62.1,.0,40.0z" stroke="#101843" stroke-width="1"/><text style="fill:#191919;font-family:Arimo;font-size:12.00pt" xml:space="preserve"><tspan x="39.1" y="45.5">Cloud</tspan></text></g><g transform="translate(580.000000,582.000000)" id="shape21"><path fill="none" stroke="#191919" d="M.0,.0L198.0,.0" stroke-width="1"/><path fill="#191919" stroke-linecap="round" stroke="#191919" d="M198.0,-3.0L204.0,.0L198.0,3.0L198.0,-3.0" stroke-width="1"/><rect x="53.5" height="19.0" y="-9.5" fill="#ffffff" width="56.9"/><text style="fill:#191919;font-family:Arimo;font-size:12.00pt" xml:space="preserve"><tspan x="53.5" y="5.5">läuft auf</tspan></text></g><g transform="translate(784.000000,542.000000)" id="shape22"><path fill="#ffffff" fill-rule="nonzero" d="M.0,40.0C.0,17.9,26.9,.0,60.0,.0C93.1,.0,120.0,17.9,120.0,40.0C120.0,62.1,93.1,80.0,60.0,80.0C26.9,80.0,.0,62.1,.0,40.0z" stroke="#101843" stroke-width="1"/><text style="fill:#191919;font-family:Noto Sans;font-size:12.00pt" xml:space="preserve"><tspan x="28.0" y="37.0">Mehrere</tspan><tspan x="36.4" y="57.0" style="font-family:Arimo">Server</tspan></text></g><g transform="translate(844.000000,542.000000)" id="shape23"><path fill="none" stroke="#191919" d="M.0,.0L.0,-33.0" stroke-width="1"/><path fill="#191919" stroke-linecap="round" stroke="#191919" d="M-3.0,-33.0L.0,-39.0L3.0,-33.0L-3.0,-33.0" stroke-width="1"/><rect x="-42.1" height="19.0" y="-27.6" fill="#ffffff" width="86.2"/><text style="fill:#191919;font-family:Arimo;font-size:12.00pt" xml:space="preserve"><tspan x="-42.1" y="-12.6">Gehosted in</tspan></text></g><g transform="translate(768.043478,415.000000)" id="group24"><path fill="none" id="shape25" stroke="#6f6f6f" d="M11.0,.0L142.9,.0C149.0,.0,153.9,4.9,153.9,11.0L153.9,77.5C153.9,83.6,149.0,88.5,142.9,88.5L11.0,88.5C4.9,88.5,.0,83.6,.0,77.5L.0,11.0C.0,4.9,4.9,.0,11.0,.0z" stroke-width="1"/><g transform="translate(10.000000,0.000000)" id="shape26"><text style="fill:#191919;font-family:Noto Sans;font-size:12.00pt" xml:space="preserve"><tspan x="7.5" y="21.5">Rechenzentrum</tspan></text></g></g><g transform="translate(247.000000,542.000000)" id="group27"><path fill="none" id="shape28" stroke="#6f6f6f" d="M11.0,.0L109.0,.0C115.1,.0,120.0,4.9,120.0,11.0L120.0,69.0C120.0,75.1,115.1,80.0,109.0,80.0L11.0,80.0C4.9,80.0,.0,75.1,.0,69.0L.0,11.0C.0,4.9,4.9,.0,11.0,.0z" stroke-width="1"/><g transform="translate(10.000000,0.000000)" id="shape29"><text style="fill:#191919;font-family:Noto Sans;font-size:10.00pt" xml:space="preserve"><tspan x="26.2" y="11.0">Echtzeit</tspan><tspan x="15.9" y="29.0">Replikation</tspan></text></g></g><g transform="translate(460.000000,582.000000)" id="shape30"><path fill="none" stroke="#191919" d="M.0,.0L-87.0,.0" stroke-width="1"/><path fill="#191919" stroke-linecap="round" stroke="#191919" d="M-87.0,3.0L-93.0,.0L-87.0,-3.0L-87.0,3.0" stroke-width="1"/></g><g transform="translate(307.000000,622.000000)" id="shape31"><path fill="none" stroke="#191919" stroke-dasharray="6,4" d="M.0,.0L.0,28.0L537.0,28.0L537.0,.0" stroke-width="1"/><path stroke-linejoin="round" fill="none" stroke-linecap="round" stroke="#191919" d="M531.0,12.0L537.0,.0L543.0,12.0" stroke-width="1"/><rect x="167.4" height="19.0" y="18.5" fill="#ffffff" width="225.7"/><text style="fill:#191919;font-family:Arimo;font-size:12.00pt" xml:space="preserve"><tspan x="167.4" y="33.5">spiegelt VM auf mehrere Server</tspan></text></g><g transform="translate(904.000000,582.000000)" id="shape32"><path fill="none" stroke="#191919" d="M.0,.0L54.0,.0" stroke-width="1"/><path fill="#191919" stroke-linecap="round" stroke="#191919" d="M54.0,-3.0L60.0,.0L54.0,3.0L54.0,-3.0" stroke-width="1"/><rect x="7.0" height="19.0" y="-9.5" fill="#ffffff" width="44.5"/><text style="fill:#191919;font-family:Arimo;font-size:12.00pt" xml:space="preserve"><tspan x="7.0" y="5.5">haben</tspan></text></g><g transform="translate(964.000000,542.000000)" id="group33"><path fill="none" id="shape34" stroke="#6f6f6f" d="M11.0,.0L117.0,.0C123.1,.0,128.0,4.9,128.0,11.0L128.0,69.0C128.0,75.1,123.1,80.0,117.0,80.0L11.0,80.0C4.9,80.0,.0,75.1,.0,69.0L.0,11.0C.0,4.9,4.9,.0,11.0,.0z" stroke-width="1"/><g transform="translate(10.000000,0.000000)" id="shape35"><text style="fill:#191919;font-family:Noto Sans;font-size:10.00pt" xml:space="preserve"><tspan x="54.0" y="2.0"></tspan><tspan x="29.1" y="20.0">Internet </tspan><tspan x="30.6" y="38.0">Zugang</tspan></text></g></g><g transform="translate(921.956522,459.250000)" id="shape36"><path fill="none" stroke="#191919" stroke-dasharray="6,4" d="M.0,.0L107.0,.0L107.0,83.0" stroke-width="1"/><path stroke-linejoin="round" fill="none" stroke-linecap="round" stroke="#191919" d="M8.0,4.0L.0,.0L8.0,-4.0" stroke-width="1"/><rect x="13.9" height="19.0" y="-28.5" fill="#ffffff" width="120.8"/><text style="fill:#191919;font-family:Arimo;font-size:12.00pt" xml:space="preserve"><tspan x="13.9" y="-13.5">bereitgestellt von</tspan></text></g><g transform="translate(460.000000,442.000000)" id="shape37"><path fill="none" stroke="#191919" d="M-6.0,.0L-15.0,.0L-15.0,44.0L-45.0,44.0L-45.0,.0L-54.0,.0" stroke-width="1"/><path fill="#191919" stroke-linecap="round" stroke="#191919" d="M-6.0,-3.0L.0,.0L-6.0,3.0L-6.0,-3.0" stroke-width="1"/><path fill="#191919" stroke-linecap="round" stroke="#191919" d="M-54.0,3.0L-60.0,.0L-54.0,-3.0L-54.0,3.0" stroke-width="1"/><rect x="-83.8" height="19.0" y="34.5" fill="#ffffff" width="96.0"/><text style="fill:#191919;font-family:Arimo;font-size:12.00pt" xml:space="preserve"><tspan x="-83.8" y="49.5">austauschbar</tspan></text></g><g transform="translate(280.000000,402.000000)" id="shape38"><path fill="#ffffff" fill-rule="nonzero" d="M.0,40.0C.0,17.9,26.9,.0,60.0,.0C93.1,.0,120.0,17.9,120.0,40.0C120.0,62.1,93.1,80.0,60.0,80.0C26.9,80.0,.0,62.1,.0,40.0z" stroke="#101843" stroke-width="1"/><text style="fill:#191919;font-family:Arimo;font-size:12.00pt" xml:space="preserve"><tspan x="31.3" y="26.5">Virtuelle </tspan><tspan x="25.8" y="45.5">Maschine</tspan><tspan x="32.9" y="64.5">Staging</tspan></text></g><g transform="translate(353.259843,559.350394)" id="shape39"><text style="fill:#191919;font-family:Arimo;font-size:12.00pt" xml:space="preserve"><tspan x="23.1" y="41.0">verwendet</tspan></text></g><g transform="translate(580.000000,442.000000)" id="shape40"><path fill="none" stroke="#191919" d="M.0,.0L48.0,.0" stroke-width="1"/><path fill="#191919" stroke-linecap="round" stroke="#191919" d="M48.0,-3.0L54.0,.0L48.0,3.0L48.0,-3.0" stroke-width="1"/><rect x="8.9" height="19.0" y="-9.5" fill="#ffffff" width="34.7"/><text style="fill:#191919;font-family:Arimo;font-size:12.00pt" xml:space="preserve"><tspan x="8.9" y="5.5">nutzt</tspan></text></g><g transform="translate(634.000000,403.000000)" id="group41"><path fill="none" id="shape42" stroke="#6f6f6f" d="M11.0,.0L99.0,.0C105.1,.0,110.0,4.9,110.0,11.0L110.0,65.0C110.0,71.1,105.1,76.0,99.0,76.0L11.0,76.0C4.9,76.0,.0,71.1,.0,65.0L.0,11.0C.0,4.9,4.9,.0,11.0,.0z" stroke-width="1"/><g transform="translate(10.000000,0.000000)" id="shape43"><text style="fill:#191919;font-family:Arimo;font-size:12.00pt" xml:space="preserve"><tspan x="33.4" y="19.5">OS</tspan><tspan x="19.7" y="38.5">Debian </tspan><tspan x="22.3" y="57.5">Stable</tspan></text></g></g><g transform="translate(460.000000,299.000000)" id="shape44"><path fill="none" stroke="#191919" d="M.0,.0L-252.0,.0" stroke-width="1"/><path fill="#191919" stroke-linecap="round" stroke="#191919" d="M-252.0,3.0L-258.0,.0L-252.0,-3.0L-252.0,3.0" stroke-width="1"/><rect x="-146.8" height="19.0" y="-9.5" fill="#ffffff" width="70.2"/><text style="fill:#191919;font-family:Arimo;font-size:12.00pt" xml:space="preserve"><tspan x="-146.8" y="5.5">harvested</tspan></text></g></g></svg>